<svg width="333" height="62" viewBox="0 0 333 62" fill="none" xmlns="http://www.w3.org/2000/svg">
<path d="M193.165 17.3497C195.093 17.3278 197.024 17.3365 198.956 17.3453C201.719 17.3147 204.447 18.3558 206.601 20.0706C209.055 22.0129 210.704 24.9045 211.23 27.9885C211.596 30.5738 211.274 33.2817 210.09 35.6264C208.463 38.9948 205.282 41.5889 201.636 42.4025C199.883 42.8968 198.047 42.7219 196.246 42.7568C194.422 42.7175 192.565 42.9012 190.781 42.4288C188.066 41.8426 185.586 40.2721 183.824 38.1199C181.518 35.3333 180.478 31.5143 181.117 27.9447C181.948 22.1398 187.3 17.3497 193.165 17.3497ZM191.995 23.5177C190.293 23.9639 188.753 25.0619 187.861 26.6018C186.808 28.3035 186.669 30.4863 187.313 32.3674C188.027 34.2222 189.567 35.7707 191.468 36.3657C192.93 36.9125 194.51 36.6632 196.032 36.72C197.686 36.6544 199.409 36.9431 200.988 36.3132C203.238 35.5564 204.934 33.461 205.317 31.125C205.396 29.992 205.452 28.7978 204.978 27.7348C204.234 25.6262 202.346 23.9858 200.179 23.5002C199.152 23.3296 198.108 23.4609 197.077 23.3428C196.241 23.2596 195.406 23.5046 194.57 23.3471C193.722 23.4521 192.843 23.334 191.995 23.5177Z" fill="#0469AE"/>
<path d="M85.3618 17.4199C87.3632 17.4155 89.3647 17.4199 91.3661 17.4199C91.3748 25.8671 91.3661 34.3143 91.3661 42.7571C89.3647 42.7571 87.3589 42.7615 85.3574 42.7527C85.3661 34.3055 85.3574 25.8627 85.3618 17.4199Z" fill="#0469AE"/>
<path d="M94.913 17.4147C96.5359 17.4191 98.1588 17.406 99.7817 17.4235C104.233 22.0386 108.701 26.6362 113.178 31.2251C113.648 31.6888 114.053 32.2268 114.614 32.5899C114.636 27.533 114.61 22.4717 114.627 17.4147C116.642 17.4191 118.656 17.4147 120.671 17.4147C120.675 25.8619 120.671 34.3091 120.671 42.7519C119.074 42.7563 117.477 42.7519 115.88 42.7519C110.916 37.6687 105.964 32.5812 100.991 27.5111C100.983 32.5943 100.991 37.6731 100.991 42.7563C98.9637 42.7563 96.9362 42.7607 94.9043 42.7519C94.913 34.3047 94.9086 25.8619 94.913 17.4147Z" fill="#0469AE"/>
<path d="M124.216 42.7576C124.216 34.3104 124.212 25.8632 124.22 17.416C132.509 17.4204 140.793 17.416 149.082 17.416C149.086 19.4545 149.082 21.4931 149.082 23.5316C142.834 23.5316 136.586 23.5316 130.338 23.5316C130.325 24.6952 130.333 25.8545 130.329 27.0181C135.964 27.0224 141.602 27.0181 147.237 27.0181C147.232 29.0522 147.246 31.0908 147.237 33.1293C141.602 33.1293 135.968 33.1293 130.338 33.1293C130.325 34.2973 130.333 35.4696 130.333 36.6376C136.581 36.6376 142.834 36.6376 149.082 36.6376C149.082 38.6718 149.082 40.7103 149.082 42.7488C140.793 42.7576 132.504 42.7576 124.216 42.7576Z" fill="#0469AE"/>
<path d="M152.714 42.7572C152.714 34.31 152.705 25.8628 152.718 17.4157C158.457 17.42 164.2 17.4157 169.939 17.4157C172.171 17.3719 174.395 18.2337 176.065 19.7166C177.954 21.414 179.054 23.9643 178.92 26.519C178.824 27.7395 178.611 28.9512 178.032 30.0493C177.223 31.6766 175.843 32.9583 174.281 33.8507C174.469 34.3844 174.965 34.7037 175.326 35.1106C177.775 37.6697 180.255 40.1937 182.714 42.7397C179.864 42.7835 177.014 42.7441 174.16 42.7572C171.758 40.2287 169.378 37.674 166.954 35.1674C164.248 35.0712 161.529 35.1368 158.818 35.1368C158.836 37.6784 158.818 40.2156 158.827 42.7572C156.791 42.7572 154.75 42.7572 152.714 42.7572ZM158.84 23.505C158.823 25.3204 158.84 27.1314 158.831 28.9469C162.599 28.9512 166.371 28.96 170.139 28.9425C171.284 28.9512 172.354 28.1988 172.737 27.1096C173.198 25.9635 172.576 24.6074 171.571 23.9774C170.975 23.5706 170.226 23.5443 169.53 23.5268C165.967 23.5268 162.403 23.5137 158.84 23.505Z" fill="#0469AE"/>
<path d="M226.001 17.418C231.775 17.4136 237.544 17.418 243.318 17.418C245.689 17.3786 248.052 18.376 249.692 20.0995C251.102 21.5213 251.963 23.446 252.194 25.4321C252.49 28.0962 251.411 30.8433 249.47 32.6719C247.887 34.1986 245.728 35.0779 243.54 35.1216C239.702 35.1391 235.869 35.1085 232.032 35.1391C232.036 37.6763 232.032 40.2179 232.032 42.7595C230.022 42.7551 228.011 42.7683 226.001 42.7508C226.006 34.3036 225.997 25.8608 226.001 17.418ZM232.01 23.6516C232.053 25.4102 232.023 27.1731 232.027 28.9361C235.66 28.9711 239.293 28.9361 242.922 28.9536C243.705 28.9754 244.558 28.8661 245.163 28.3193C245.95 27.7024 246.312 26.5957 246.024 25.6333C245.763 24.3209 244.406 23.4854 243.127 23.5379C239.728 23.5292 236.33 23.5423 232.928 23.5335C232.61 23.5073 232.306 23.5642 232.01 23.6516Z" fill="#1DA6E0"/>
<path d="M248.135 42.7556C252.916 34.2953 257.733 25.8569 262.545 17.4141C264.033 17.4141 265.521 17.4141 267.009 17.4141C271.347 25.017 275.681 32.6199 280.019 40.2272C280.51 41.0539 280.937 41.9201 281.485 42.7163C279.135 42.8169 276.781 42.7206 274.432 42.7644C273.753 41.5001 272.979 40.2884 272.33 39.0023C267.318 38.9848 262.306 39.0154 257.298 38.9892C256.528 40.214 255.879 41.5133 255.135 42.76C252.803 42.76 250.467 42.7556 248.135 42.7556ZM264.721 25.8263C263.468 28.2104 262.067 30.5114 260.783 32.8736C263.472 32.878 266.165 32.8823 268.854 32.8692C267.749 30.9969 266.692 29.0896 265.604 27.2086C265.33 26.7362 265.103 26.2287 264.721 25.8263Z" fill="#1DA6E0"/>
<path d="M274.014 17.4314C276.807 17.3964 279.605 17.4314 282.398 17.4139C282.776 17.3221 282.964 17.7202 283.216 17.917C286.118 20.7561 289.055 23.5514 291.944 26.4036C295.007 23.4114 298.087 20.4324 301.142 17.4271C304.053 17.4096 306.963 17.4183 309.874 17.4271C304.91 22.2784 299.971 27.1604 294.994 31.9986C294.985 35.5857 294.994 39.1728 294.994 42.7599C292.966 42.7599 290.939 42.7599 288.916 42.7599C288.916 39.1684 288.92 35.5769 288.911 31.9898C283.921 27.1472 278.996 22.2565 274.014 17.4314Z" fill="#1DA6E0"/>
<path d="M72.5524 16.417C68.8454 11.4344 63.1848 7.99605 57.0674 7.0424C53.9869 6.72744 50.889 6.72744 47.7999 6.77993C47.0863 6.75368 46.6208 7.37049 46.1422 7.79919C43.6273 10.3583 41.0863 12.8955 38.5541 15.4371C37.4968 16.4957 36.5004 17.6419 35.2691 18.508C35.7129 18.6742 36.1611 18.858 36.6527 18.8098C40.3902 18.8142 44.132 18.7967 47.8695 18.8055C50.8455 18.8405 53.8607 18.5999 56.7889 19.2735L57.063 19.3698C61.6011 20.844 64.9426 25.201 65.3516 29.9605C65.9346 35.4811 62.1711 40.8837 57.0108 42.6466C53.7433 43.4996 50.3495 43.0622 47.021 43.1671C45.0718 43.1628 43.1182 43.1978 41.169 43.119C41.0515 40.0919 41.2082 37.0603 41.1212 34.0288C41.1299 33.0183 41.008 31.9771 41.2778 30.9885C43.2009 30.831 45.1371 30.9754 47.0646 30.901C43.3097 26.9727 35.0864 19.0942 34.8993 19.0329C31.0661 23.0662 27.0023 26.8721 23.1387 30.8835C25.1271 30.9535 27.1198 30.9054 29.1082 30.9448C29.2387 39.0332 29.1256 47.1261 29.1647 55.2146C37.8275 55.1402 46.4989 55.3852 55.153 55.0746C55.7926 55.0833 56.4278 55.0046 57.0674 54.9565C60.8005 54.2434 64.4335 52.8348 67.5097 50.5557C72.9397 46.6361 76.564 40.3237 77.2384 33.6395C77.8736 27.5895 76.2464 21.2727 72.5524 16.417Z" fill="#1DA6E0"/>
</svg>
