<svg xmlns="http://www.w3.org/2000/svg" width="159" height="35" viewBox="0 0 159 35"><g><g><g><path fill="#56c59f" d="M10.535 14h13.953V31.5H10.535V35H28V10.5H10.535z"/></g><g><g><g><path fill="#00301e" d="M43.288 4.06a.927.927 0 0 0 .679-.286.928.928 0 0 0 .286-.68.898.898 0 0 0-.286-.669.945.945 0 0 0-.68-.276.91.91 0 0 0-.669.276.911.911 0 0 0-.275.67c0 .262.091.489.275.679.184.19.407.285.67.285"/></g><g><path fill="#00301e" d="M41.083 4.06a.926.926 0 0 0 .678-.286.926.926 0 0 0 .286-.68.897.897 0 0 0-.286-.669.943.943 0 0 0-.678-.276.91.91 0 0 0-.67.276.91.91 0 0 0-.275.67c0 .262.09.489.275.679.183.19.407.285.67.285"/></g><g><path fill="#00301e" d="M49.017 13.117a.927.927 0 0 0-.68.285.927.927 0 0 0-.284.68c0 .262.094.485.285.67.19.183.416.275.679.275a.911.911 0 0 0 .67-.276.913.913 0 0 0 .275-.67.944.944 0 0 0-.276-.679.895.895 0 0 0-.669-.285"/></g><g><path fill="#00301e" d="M42.992 9.69h-.965c-.394 0-.59-.203-.59-.61V7.605c0-.198.052-.358.157-.483a.537.537 0 0 1 .433-.187h.965zm5.08-.649c0 .433-.216.65-.65.65h-2.56V5.044h-2.815c-.696 0-1.267.203-1.713.61-.525.473-.788 1.11-.788 1.91v1.477c0 .696.197 1.273.591 1.733.473.538 1.122.807 1.95.807h5.374c.683 0 1.254-.203 1.714-.61.524-.473.787-1.103.787-1.89V5.044h-1.89z"/></g><g><path fill="#00301e" d="M46.812 13.117a.927.927 0 0 0-.68.285.927.927 0 0 0-.285.68c0 .262.096.485.286.67.19.183.416.275.679.275a.911.911 0 0 0 .67-.276.913.913 0 0 0 .275-.67.943.943 0 0 0-.276-.679.895.895 0 0 0-.669-.285"/></g><g><path fill="#00301e" d="M54.019 5.044h-1.103v1.89h.945c.525 0 .932.151 1.22.453.303.302.453.722.453 1.26 0 .381-.062.65-.187.807-.124.158-.338.237-.64.237h-2.914v1.89h3.072c.774 0 1.391-.23 1.852-.69.497-.498.747-1.213.747-2.145 0-.972-.217-1.773-.65-2.403-.59-.866-1.522-1.3-2.795-1.3"/></g><g><path fill="#00301e" d="M69.613 8.706c-.433-.499-.854-.88-1.26-1.142.367-.498.787-.748 1.26-.748.499 0 .912.25 1.24.748-.446.302-.86.683-1.24 1.142m-7.206.985h-.946c-.394 0-.59-.217-.59-.65V7.545c0-.407.196-.61.59-.61h.946zm25.93-.65c0 .433-.21.65-.63.65h-1.555V5.044l-1.89.385v4.262h-1.555V5.044l-1.89.385v4.262H79.24V5.044l-1.87.385v4.262h-6.025c.551-.696 1.096-1.214 1.634-1.556v-.157c0-.84-.315-1.549-.945-2.127-.67-.603-1.477-.905-2.422-.905-.814 0-1.536.23-2.166.689-.8.577-1.2 1.339-1.2 2.284v.216c.498.342 1.042.86 1.633 1.556h-3.583V5.044H61.52c-.735 0-1.332.217-1.791.65-.512.485-.768 1.109-.768 1.87v1.517c0 .643.196 1.194.59 1.653.486.565 1.143.847 1.97.847h.905v.138c0 .512-.243.905-.728 1.181-.5.302-1.189.453-2.068.453h-.177l1.201 1.674c1.26-.053 2.186-.361 2.776-.926.578-.538.867-1.352.867-2.441v-.079h4.233c.394 0 .755-.111 1.083-.335.341.224.702.335 1.083.335h16.992c.734 0 1.332-.23 1.791-.69.486-.472.729-1.075.729-1.81V2.386h-1.87z"/></g><g><path fill="#00301e" d="M104.837 4.06a.896.896 0 0 0 .67-.286.943.943 0 0 0 .275-.68.913.913 0 0 0-.275-.669.914.914 0 0 0-.67-.276.945.945 0 0 0-.68.276.896.896 0 0 0-.285.67c0 .262.095.489.286.679.19.19.416.285.68.285"/></g><g><path fill="#00301e" d="M102.632 4.06a.896.896 0 0 0 .67-.286.943.943 0 0 0 .275-.68.913.913 0 0 0-.275-.669.914.914 0 0 0-.67-.276.945.945 0 0 0-.68.276.896.896 0 0 0-.285.67c0 .262.095.489.286.679.19.19.416.285.68.285"/></g><g><path fill="#00301e" d="M107.298 8.982c0 .472-.203.709-.61.709h-5.927c-.42 0-.63-.237-.63-.71V6.246l-1.87 1.22v1.616c0 .721.21 1.306.63 1.752.46.499 1.103.748 1.93.748h5.867c.696 0 1.273-.203 1.732-.61.512-.46.769-1.09.769-1.89V5.044h-1.89z"/></g><g><path fill="#00301e" d="M116.946 9.08V7.565c0-.183.056-.335.167-.453a.581.581 0 0 1 .444-.177h2.854v-1.89h-2.796c-.695 0-1.28.204-1.752.61-.539.473-.808 1.11-.808 1.91v1.517c0 .288.033.492.1.61h-1.615c-.42 0-.63-.21-.63-.63V2.386h-1.87v6.753c0 .618.183 1.156.55 1.615.446.552 1.037.827 1.772.827h7.955v-1.89h-3.76c-.408 0-.611-.204-.611-.61"/></g><g><path fill="#00301e" d="M132.757 4.06a.896.896 0 0 0 .669-.286.944.944 0 0 0 .275-.68.913.913 0 0 0-.275-.669.914.914 0 0 0-.67-.276.945.945 0 0 0-.679.276.896.896 0 0 0-.285.67c0 .262.095.489.285.679.19.19.416.285.68.285"/></g><g><path fill="#00301e" d="M133.544 8.982c0 .472-.21.709-.63.709h-.926V7.604c0-.447.197-.67.591-.67h.965zm-7.265.709h-.945c-.394 0-.591-.217-.591-.65V7.544c0-.406.197-.61.59-.61h.946zm4.508-3.938c-.46.472-.689 1.076-.689 1.811v2.127h-1.929V5.044h-2.776c-.736 0-1.333.217-1.792.65-.512.485-.768 1.11-.768 1.87v1.517c0 .643.197 1.194.59 1.653.486.565 1.143.847 1.97.847h.905v.138c0 .512-.243.905-.728 1.181-.5.302-1.188.453-2.067.453h-.178l1.201 1.674c1.26-.053 2.186-.361 2.777-.926.577-.538.866-1.352.866-2.441v-.079h4.745c.709 0 1.286-.203 1.733-.61.524-.46.787-1.09.787-1.89V5.044h-2.796c-.775 0-1.391.236-1.85.709"/></g><g><path fill="#00301e" d="M148.548 10.695c0 .446-.263.67-.788.67s-.788-.224-.788-.67v-3.21c0-.446.263-.669.788-.669s.788.223.788.67zm4.055-1.654c0 .433-.21.65-.63.65h-1.555V7.486c0-.722-.217-1.313-.65-1.772-.498-.513-1.168-.768-2.008-.768-.696 0-1.28.17-1.752.512-.604.46-.906 1.135-.906 2.028V9.69h-2.166V8.628c0-.945-.243-1.74-.729-2.383-.604-.8-1.496-1.201-2.677-1.201h-1.142v1.89h.984c1.116 0 1.674.532 1.674 1.595v1.162h-3.78v1.89h7.954c.17.512.472.912.906 1.2.459.303 1.004.454 1.634.454.63 0 1.168-.148 1.615-.443.446-.295.748-.699.905-1.21h1.674c.735 0 1.332-.23 1.791-.69.486-.473.729-1.076.729-1.811V2.386h-1.87z"/></g><g><path fill="#00301e" d="M156.148 2.386v10.057l2.047-.862V2.386z"/></g><g><path fill="#00301e" d="M91.97 12.442l2.047-.86V2.385H91.97z"/></g><g><path fill="#00301e" d="M39.585 32.202l.298-1.82c.818.355 1.629.533 2.434.533.91 0 1.366-.336 1.366-1.01a.855.855 0 0 0-.317-.682c-.211-.178-.633-.399-1.267-.663-.87-.356-1.478-.693-1.82-1.01-.49-.461-.733-1.061-.733-1.8 0-.937.356-1.624 1.069-2.06.554-.355 1.313-.534 2.276-.534.884 0 1.682.172 2.395.515l-.337 1.781c-.792-.356-1.498-.534-2.118-.534-.844 0-1.266.27-1.266.812 0 .171.089.326.267.465.178.139.544.326 1.099.564.923.383 1.57.745 1.94 1.088.54.502.81 1.122.81 1.861 0 1.03-.323 1.801-.97 2.316-.567.449-1.352.673-2.354.673-1.096 0-2.02-.165-2.772-.495"/></g><g><path fill="#00301e" d="M50.491 29.174l.93-3.246.93 3.246zm1.98-5.86h-2.098l-3.009 9.244h2.157l.515-1.722h2.771l.515 1.722h2.177z"/></g><g><path fill="#00301e" d="M62.922 29.233V24.18L65 23.315v6.096c0 .898-.271 1.636-.812 2.217-.646.712-1.63 1.069-2.949 1.069-1.478 0-2.533-.442-3.166-1.326-.397-.555-.595-1.208-.595-1.96v-5.23l2.06-.866v5.918c0 .501.15.904.454 1.207.29.317.706.475 1.247.475.607 0 1.056-.198 1.346-.594.224-.29.337-.653.337-1.088"/></g><g><path fill="#00301e" d="M73.621 29.055c0 1.07-.56 1.603-1.682 1.603h-2.227v-5.443h2.227c1.121 0 1.682.535 1.682 1.604zm1.168-4.533c-.607-.804-1.504-1.207-2.692-1.207H67.83v9.244h4.267c1.188 0 2.085-.403 2.692-1.208.488-.647.733-1.445.733-2.395v-2.039c0-.95-.245-1.748-.733-2.395"/></g><g><path fill="#00301e" d="M80.556 32.558h-2.058v-8.377l2.058-.866z"/></g><g><path fill="#00301e" d="M97.756 29.174l.93-3.246.93 3.246zm1.98-5.86h-2.099l-3.008 9.244h2.157l.514-1.722h2.772l.514 1.722h2.178z"/></g><g><path fill="#00301e" d="M107.95 32.558h-2.04v-3.642l-2.87-5.601h2.198l1.682 3.681 1.702-3.681h2.178l-2.85 5.601z"/></g><g><path fill="#00301e" d="M122.537 32.558h-1.82v-7.145l-1.92 7.145h-2.198l-1.9-7.145v7.145h-1.821v-9.243h3.028l1.801 7.303 2.02-7.303h2.81z"/></g><g><path fill="#00301e" d="M130.988 32.558h-5.601v-9.243h5.898l-.297 1.722h-3.543v1.94h3.246l-.277 1.721h-2.969v2.138h3.84z"/></g><g><path fill="#00301e" d="M141.28 32.558h-1.741l-3.9-5.839v5.84h-1.86v-9.244h1.742l3.899 5.839v-5.84h1.86z"/></g><g><path fill="#00301e" d="M148.03 32.558h-2.059v-7.521h-2.217v-1.722h6.67l-.297 1.722h-2.097z"/></g><g><path fill="#00301e" d="M152.383 32.202l.298-1.82c.818.355 1.629.533 2.434.533.91 0 1.366-.336 1.366-1.01a.855.855 0 0 0-.317-.682c-.211-.178-.633-.399-1.267-.663-.87-.356-1.478-.693-1.82-1.01-.489-.461-.733-1.061-.733-1.8 0-.937.356-1.624 1.069-2.06.554-.355 1.313-.534 2.276-.534.884 0 1.682.172 2.395.515l-.336 1.781c-.792-.356-1.499-.534-2.119-.534-.844 0-1.266.27-1.266.812 0 .171.089.326.267.465.178.139.544.326 1.099.564.923.383 1.57.745 1.94 1.088.54.502.81 1.122.81 1.861 0 1.03-.323 1.801-.97 2.316-.567.449-1.352.673-2.354.673-1.096 0-2.02-.165-2.772-.495"/></g><g><path fill="#00301e" d="M91.68 27.373c0 .409-.198.613-.594.613h-2.237v-2.77h2.237c.185 0 .33.062.435.187a.725.725 0 0 1 .159.485zm1.108-3.444c-.448-.41-1.022-.614-1.722-.614h-4.097v9.243h2.04v-2.672h2.018c.831 0 1.484-.27 1.959-.811.396-.462.594-1.042.594-1.742v-1.485c0-.804-.264-1.444-.792-1.92"/></g></g></g><g><path fill="#007449" d="M17.466 21H3.513V3.5h13.953V0H0v24.5h17.466z"/></g></g></g></svg>