<svg width="69" height="66" viewBox="0 0 69 66" fill="none" xmlns="http://www.w3.org/2000/svg">
<path d="M59.0462 17.7166C54.9573 12.5017 48.7266 8.89328 42.0091 7.89223C38.6261 7.5663 35.2187 7.5663 31.8112 7.61286C31.0324 7.58958 30.5213 8.24143 29.9858 8.68376C27.2112 11.361 24.4123 14.015 21.6377 16.6922C20.4694 17.8097 19.3742 19.0203 18.0112 19.9282C18.498 20.0912 18.9848 20.3007 19.5202 20.2541C23.6335 20.2541 27.7467 20.2309 31.8599 20.2541C35.1456 20.3007 38.4557 20.0446 41.6684 20.743L41.9604 20.8361C46.9499 22.3726 50.625 26.9356 51.0874 31.9176C51.7202 37.6912 47.5827 43.3483 41.9118 45.2107C38.3097 46.0954 34.5858 45.6531 30.9107 45.7462C28.7689 45.7462 26.6271 45.7695 24.461 45.6996C24.3393 42.5335 24.5097 39.3674 24.4123 36.1779C24.4123 35.107 24.2906 34.0361 24.5827 32.9885C26.7001 32.8256 28.8176 32.9652 30.9594 32.8954C26.8218 28.7748 17.7679 20.5335 17.5731 20.4637C13.3626 24.6774 8.88426 28.6816 4.625 32.8721C6.81548 32.942 9.00595 32.8954 11.1964 32.942C11.3425 41.416 11.2208 49.8901 11.2694 58.3642C20.8102 58.2943 30.3509 58.5504 39.8673 58.2245C40.5731 58.2245 41.279 58.1547 41.9604 58.1081C46.0737 57.3631 50.0652 55.8965 53.4483 53.4986C59.4356 49.4012 63.4271 42.7896 64.1573 35.7822C64.8874 29.4266 63.1107 22.815 59.0462 17.7166Z" fill="#1DA6E0"/>
</svg>
